<mxfile host="app.diagrams.net" modified="2024-04-07T03:11:49.084Z" agent="Mozilla/5.0 (Windows NT 10.0; Win64; x64) AppleWebKit/537.36 (KHTML, like Gecko) Chrome/116.0.0.0 Safari/537.36" version="24.2.0" etag="9VtEKUTCr7StxXGf1wGr" type="github">
  <diagram name="第 1 页" id="l2tP_qVmsBE2I1G4N8_s">
    <mxGraphModel>
      <root>
        <mxCell id="0" />
        <mxCell id="1" parent="0" />
      </root>
    </mxGraphModel>
  </diagram>
</mxfile>
